# Created by FreeCAD <http://www.freecadweb.org>
v -40.000000 20.000000 -9.000000
v -30.000000 0.000000 9.000000
v -40.000000 20.000000 9.000000
v -30.000000 0.000000 -9.000000
v -22.000000 20.000000 9.000000
v -22.000000 20.000000 -9.000000
v -14.420664 0.000000 6.931411
v -13.228757 -0.000000 9.000000
v -15.291503 0.000000 4.708498
v -15.821884 0.000000 2.380752
v -16.000000 0.000000 -0.000000
v -15.821884 0.000000 -2.380752
v -15.291503 0.000000 -4.708498
v -14.420664 0.000000 -6.931411
v -13.228757 0.000000 -9.000000
v 0.000000 0.000000 -9.000000
v 13.228757 0.000000 -9.000000
v -22.000000 45.000000 -9.000000
v -40.000000 45.000000 -9.000000
v -40.000000 80.000000 -9.000000
v 40.000000 20.000000 -9.000000
v 30.000000 0.000000 -9.000000
v 0.000000 80.000000 -9.000000
v 40.000000 80.000000 -9.000000
v 0.000000 0.000000 9.000000
v 13.228757 -0.000000 9.000000
v -22.000000 45.000000 9.000000
v -40.000000 80.000000 9.000000
v -40.000000 45.000000 9.000000
v 40.000000 20.000000 9.000000
v 30.000000 0.000000 9.000000
v 0.000000 80.000000 9.000000
v 40.000000 80.000000 9.000000
v -16.000000 -40.000000 -0.000000
v -15.803014 -40.000000 -2.502951
v 16.000000 -40.000000 -0.000000
v 15.821884 0.000000 2.380752
v 15.803014 -40.000000 2.502951
v -15.216905 -40.000000 -4.944272
v 16.000000 0.000000 0.000000
v 15.291503 0.000000 4.708498
v 15.216905 -40.000000 4.944272
v -14.256104 -40.000000 -7.263848
v -12.944272 -40.000000 -9.404564
v 14.420664 0.000000 6.931411
v 14.256104 -40.000000 7.263848
v -11.737963 0.000000 -10.872913
v -11.313708 -40.000000 -11.313708
v 12.944272 -40.000000 9.404564
v -9.984427 0.000000 -12.502448
v -9.404564 -40.000000 -12.944272
v 11.737963 0.000000 10.872913
v 11.313708 -40.000000 11.313708
v -8.007401 0.000000 -13.852131
v -7.263848 -40.000000 -14.256104
v 9.984427 0.000000 12.502448
v 9.404564 -40.000000 12.944272
v -5.851140 0.000000 -14.891748
v -4.944272 -40.000000 -15.216905
v -3.563906 0.000000 -15.598031
v 8.007401 0.000000 13.852131
v -2.502951 -40.000000 -15.803014
v 7.263848 -40.000000 14.256104
v -1.196899 0.000000 -15.955170
v -0.000000 -40.000000 -16.000000
v 5.851140 0.000000 14.891748
v 4.944272 -40.000000 15.216905
v 3.563906 0.000000 15.598031
v 1.196899 0.000000 -15.955170
v 2.502951 -40.000000 15.803014
v 2.502951 -40.000000 -15.803014
v 3.563906 0.000000 -15.598031
v 1.196899 0.000000 15.955170
v 4.944272 -40.000000 -15.216905
v 0.000000 -40.000000 16.000000
v 5.851140 0.000000 -14.891748
v 7.263848 -40.000000 -14.256104
v -1.196899 0.000000 15.955170
v -2.502951 -40.000000 15.803014
v 8.007401 0.000000 -13.852131
v 9.404564 -40.000000 -12.944272
v -3.563906 0.000000 15.598031
v -4.944272 -40.000000 15.216905
v 9.984427 0.000000 -12.502448
v 11.313708 -40.000000 -11.313708
v -5.851140 0.000000 14.891748
v -7.263848 -40.000000 14.256104
v 11.737963 0.000000 -10.872913
v 12.944272 -40.000000 -9.404564
v -8.007401 0.000000 13.852131
v -9.404564 -40.000000 12.944272
v 14.256104 -40.000000 -7.263848
v -9.984427 0.000000 12.502448
v 14.420664 0.000000 -6.931411
v -11.313708 -40.000000 11.313708
v 15.216905 -40.000000 -4.944272
v 15.291503 0.000000 -4.708498
v -11.737963 0.000000 10.872913
v 15.803014 -40.000000 -2.502951
v -12.944272 -40.000000 9.404564
v 15.821884 0.000000 -2.380752
v -14.256104 -40.000000 7.263848
v -15.216905 -40.000000 4.944272
v -15.803014 -40.000000 2.502951
v 33.000000 80.000000 7.500000
v 27.000000 80.000000 7.500000
v 33.000000 80.000000 -7.500000
v 7.000000 80.000000 7.500000
v 13.000000 80.000000 7.500000
v 27.000000 80.000000 -7.500000
v 13.000000 80.000000 -7.500000
v 7.000000 80.000000 -7.500000
v -27.000000 80.000000 7.500000
v -33.000000 80.000000 7.500000
v -33.000000 80.000000 -7.500000
v -7.000000 80.000000 7.500000
v -13.000000 80.000000 7.500000
v -13.000000 80.000000 -7.500000
v -27.000000 80.000000 -7.500000
v -7.000000 80.000000 -7.500000
v 33.000000 86.000000 7.500000
v 27.000000 86.000000 7.500000
v 27.000000 86.000000 -7.500000
v 33.000000 86.000000 -7.500000
v 13.000000 86.000000 7.500000
v 7.000000 86.000000 7.500000
v 7.000000 86.000000 -7.500000
v 13.000000 86.000000 -7.500000
v -27.000000 86.000000 7.500000
v -33.000000 86.000000 7.500000
v -27.000000 86.000000 -7.500000
v -33.000000 86.000000 -7.500000
v -7.000000 86.000000 7.500000
v -13.000000 86.000000 7.500000
v -7.000000 86.000000 -7.500000
v -13.000000 86.000000 -7.500000
vn -0.894427 -0.447214 0.000000
vn -0.894427 -0.447214 0.000000
vn 0.000000 1.000000 0.000000
vn 0.000000 1.000000 -0.000000
vn -0.000000 -1.000000 -0.000000
vn 0.000000 -1.000000 0.000000
vn 0.000000 -1.000000 0.000000
vn 0.000000 -1.000000 0.000000
vn 0.000000 -1.000000 0.000000
vn 0.000000 -1.000000 0.000000
vn 0.000000 -1.000000 0.000000
vn 0.000000 -1.000000 0.000000
vn 0.000000 -1.000000 -0.000000
vn 0.000000 0.000000 -1.000000
vn 0.000000 0.000000 -1.000000
vn 0.000000 0.000000 -1.000000
vn 0.000000 0.000000 -1.000000
vn 0.000000 0.000000 -1.000000
vn 0.000000 0.000000 -1.000000
vn 0.000000 0.000000 -1.000000
vn 0.000000 0.000000 -1.000000
vn 0.000000 0.000000 -1.000000
vn 0.000000 0.000000 -1.000000
vn 0.000000 0.000000 -1.000000
vn 0.000000 0.000000 1.000000
vn 0.000000 0.000000 1.000000
vn 0.000000 0.000000 1.000000
vn 0.000000 0.000000 1.000000
vn 0.000000 0.000000 1.000000
vn 0.000000 0.000000 1.000000
vn 0.000000 0.000000 1.000000
vn 0.000000 0.000000 1.000000
vn 0.000000 0.000000 1.000000
vn 0.000000 0.000000 1.000000
vn 0.000000 0.000000 1.000000
vn -1.000000 0.000000 0.000000
vn -1.000000 -0.000000 0.000000
vn -0.997213 0.000000 0.074606
vn -0.996917 -0.000231 -0.078459
vn -0.997213 0.000000 -0.074606
vn 0.996917 -0.000231 0.078459
vn -0.972370 -0.000437 -0.233445
vn 0.997213 -0.000000 0.074606
vn -0.975011 0.000219 -0.222158
vn 0.972370 -0.000437 0.233445
vn -0.923879 -0.000620 -0.382683
vn 0.975011 0.000219 0.222158
vn -0.931100 0.000414 -0.364764
vn -0.852640 -0.000779 -0.522498
vn 0.923879 -0.000620 0.382683
vn -0.866459 0.000585 -0.499248
vn 0.931100 0.000414 0.364764
vn -0.760406 -0.000908 -0.649448
vn 0.866459 0.000585 0.499248
vn -0.782402 0.000734 -0.622773
vn 0.852640 -0.000779 0.522498
vn -0.649448 -0.001016 -0.760406
vn -0.680732 0.000852 -0.732532
vn 0.782402 0.000734 0.622773
vn 0.760406 -0.000908 0.649448
vn -0.522498 -0.001102 -0.852640
vn -0.563824 0.000949 -0.825894
vn 0.680732 0.000852 0.732532
vn 0.649448 -0.001016 0.760406
vn -0.382683 -0.001166 -0.923879
vn -0.434296 0.001024 -0.900770
vn -0.295047 0.001078 -0.955482
vn 0.563824 0.000949 0.825894
vn -0.233445 -0.001209 -0.972369
vn 0.522498 -0.001102 0.852640
vn -0.149193 0.001110 -0.988807
vn -0.078459 -0.001230 -0.996917
vn 0.434296 0.001024 0.900770
vn 0.382683 -0.001166 0.923879
vn 0.295047 0.001078 0.955482
vn 0.000000 0.001121 -0.999999
vn 0.233445 -0.001209 0.972369
vn 0.078459 -0.001230 -0.996917
vn 0.149193 0.001110 -0.988807
vn 0.149193 0.001110 0.988807
vn 0.233445 -0.001209 -0.972369
vn 0.078459 -0.001230 0.996917
vn 0.295047 0.001078 -0.955482
vn 0.382683 -0.001166 -0.923879
vn 0.000000 0.001121 0.999999
vn -0.078459 -0.001230 0.996917
vn 0.434296 0.001024 -0.900770
vn 0.522498 -0.001102 -0.852640
vn -0.149193 0.001110 0.988807
vn -0.233445 -0.001209 0.972369
vn 0.563824 0.000949 -0.825894
vn 0.649448 -0.001016 -0.760406
vn -0.295047 0.001078 0.955482
vn -0.382683 -0.001166 0.923879
vn 0.680732 0.000852 -0.732532
vn 0.760406 -0.000908 -0.649448
vn -0.434296 0.001024 0.900770
vn 0.782402 0.000734 -0.622773
vn -0.522498 -0.001102 0.852640
vn 0.852640 -0.000779 -0.522498
vn -0.563824 0.000949 0.825894
vn 0.866459 0.000585 -0.499248
vn -0.649448 -0.001016 0.760406
vn 0.923879 -0.000620 -0.382683
vn 0.931100 0.000414 -0.364764
vn -0.680732 0.000852 0.732532
vn 0.972370 -0.000437 -0.233445
vn -0.760406 -0.000908 0.649448
vn 0.975011 0.000219 -0.222158
vn -0.782402 0.000734 0.622773
vn 0.996917 -0.000231 -0.078459
vn -0.852640 -0.000779 0.522498
vn 0.997213 0.000000 -0.074606
vn -0.866459 0.000585 0.499248
vn -0.923879 -0.000620 0.382683
vn -0.931100 0.000414 0.364764
vn -0.972370 -0.000437 0.233445
vn -0.996917 -0.000231 0.078459
vn -0.975011 0.000219 0.222158
vn 0.000000 1.000000 -0.000000
vn -0.000000 1.000000 0.000000
vn -0.000000 1.000000 0.000000
vn 0.000000 1.000000 0.000000
vn 0.000000 1.000000 0.000000
vn 0.000000 1.000000 0.000000
vn 0.000000 1.000000 0.000000
vn 0.000000 1.000000 0.000000
vn 0.000000 1.000000 0.000000
vn 0.000000 1.000000 0.000000
vn 0.000000 1.000000 0.000000
vn -0.000000 1.000000 -0.000000
vn 0.000000 1.000000 0.000000
vn 0.000000 -1.000000 -0.000000
vn 0.000000 -1.000000 0.000000
vn 0.000000 -1.000000 0.000000
vn 0.000000 -1.000000 0.000000
vn 0.000000 -1.000000 0.000000
vn 0.000000 -1.000000 0.000000
vn 0.000000 -1.000000 0.000000
vn 0.000000 -1.000000 0.000000
vn -0.000000 -1.000000 -0.000000
vn 0.894427 -0.447214 0.000000
vn 0.894427 -0.447214 0.000000
vn 1.000000 0.000000 0.000000
vn 1.000000 0.000000 0.000000
vn 0.000000 1.000000 -0.000000
vn 0.000000 1.000000 0.000000
vn 0.000000 1.000000 0.000000
vn 0.000000 1.000000 -0.000000
vn 0.000000 1.000000 -0.000000
vn 0.000000 1.000000 -0.000000
vn 0.000000 1.000000 -0.000000
vn 0.000000 1.000000 0.000000
vn 0.000000 1.000000 -0.000000
vn 0.000000 1.000000 0.000000
vn 0.000000 1.000000 0.000000
vn 0.000000 1.000000 0.000000
vn 0.000000 1.000000 0.000000
vn 0.000000 1.000000 0.000000
vn 0.000000 1.000000 0.000000
vn 0.000000 1.000000 0.000000
vn 0.000000 1.000000 -0.000000
vn 0.000000 1.000000 0.000000
vn 0.000000 1.000000 0.000000
vn 0.000000 1.000000 0.000000
vn 0.000000 1.000000 0.000000
vn 0.000000 1.000000 -0.000000
vn 0.000000 1.000000 0.000000
vn 0.000000 1.000000 -0.000000
vn 0.000000 1.000000 0.000000
vn 0.000000 1.000000 0.000000
vn 0.000000 1.000000 0.000000
vn 0.000000 1.000000 0.000000
vn -1.000000 0.000000 0.000000
vn -1.000000 -0.000000 0.000000
vn 0.000000 -1.000000 0.000000
vn 0.000000 -1.000000 0.000000
vn 0.000000 1.000000 0.000000
vn 0.000000 1.000000 0.000000
vn 0.000000 1.000000 0.000000
vn 0.000000 1.000000 0.000000
vn 0.000000 1.000000 0.000000
vn 0.000000 1.000000 0.000000
vn 0.000000 1.000000 0.000000
vn 0.000000 1.000000 0.000000
vn -0.000000 1.000000 -0.000000
vn 0.000000 1.000000 0.000000
vn 0.000000 1.000000 0.000000
vn 0.000000 1.000000 0.000000
vn 0.000000 1.000000 -0.000000
vn 0.000000 -1.000000 0.000000
vn 0.000000 -1.000000 0.000000
vn 0.000000 -1.000000 0.000000
vn 0.000000 -1.000000 0.000000
vn 0.000000 -1.000000 0.000000
vn 0.000000 -1.000000 0.000000
vn 0.000000 -1.000000 0.000000
vn 0.000000 -1.000000 0.000000
vn -0.000000 -1.000000 0.000000
vn 0.000000 -1.000000 0.000000
vn -0.000000 -1.000000 0.000000
vn -0.000000 -1.000000 0.000000
vn 0.000000 -1.000000 0.000000
vn 0.000000 -1.000000 0.000000
vn 0.000000 -1.000000 0.000000
vn 0.000000 -1.000000 0.000000
vn 0.000000 -1.000000 0.000000
vn 0.000000 -1.000000 0.000000
vn 0.000000 -1.000000 0.000000
vn -0.000000 -1.000000 0.000000
vn 0.000000 -1.000000 0.000000
vn 0.000000 -1.000000 0.000000
vn 0.000000 -1.000000 0.000000
vn 0.000000 -1.000000 0.000000
vn 0.000000 -1.000000 0.000000
vn 0.000000 -1.000000 0.000000
vn 0.000000 -1.000000 0.000000
vn 0.000000 -1.000000 0.000000
vn 0.000000 -1.000000 0.000000
vn 0.000000 -1.000000 0.000000
vn 0.000000 -1.000000 0.000000
vn 0.000000 -1.000000 0.000000
vn 0.000000 -1.000000 0.000000
vn 0.000000 -1.000000 0.000000
vn 0.000000 -1.000000 0.000000
vn 0.000000 -1.000000 0.000000
vn -0.000000 -1.000000 0.000000
vn 0.000000 -1.000000 0.000000
vn 0.000000 0.000000 1.000000
vn 0.000000 0.000000 1.000000
vn -1.000000 0.000000 0.000000
vn -1.000000 0.000000 0.000000
vn 0.000000 0.000000 -1.000000
vn 0.000000 0.000000 -1.000000
vn 1.000000 -0.000000 0.000000
vn 1.000000 0.000000 0.000000
vn 0.000000 0.000000 1.000000
vn 0.000000 0.000000 1.000000
vn -1.000000 0.000000 0.000000
vn -1.000000 0.000000 0.000000
vn 0.000000 0.000000 -1.000000
vn 0.000000 0.000000 -1.000000
vn 1.000000 -0.000000 0.000000
vn 1.000000 0.000000 0.000000
vn 0.000000 0.000000 1.000000
vn 0.000000 0.000000 1.000000
vn 1.000000 -0.000000 0.000000
vn 1.000000 0.000000 0.000000
vn 0.000000 0.000000 -1.000000
vn 0.000000 0.000000 -1.000000
vn -1.000000 0.000000 0.000000
vn -1.000000 0.000000 0.000000
vn 0.000000 0.000000 1.000000
vn 0.000000 0.000000 1.000000
vn 1.000000 -0.000000 0.000000
vn 1.000000 0.000000 0.000000
vn 0.000000 0.000000 -1.000000
vn 0.000000 0.000000 -1.000000
vn -1.000000 0.000000 0.000000
vn -1.000000 0.000000 0.000000
vn 0.000000 1.000000 0.000000
vn 0.000000 1.000000 0.000000
vn 0.000000 1.000000 0.000000
vn 0.000000 1.000000 0.000000
vn 0.000000 1.000000 0.000000
vn 0.000000 1.000000 0.000000
vn 0.000000 1.000000 0.000000
vn 0.000000 1.000000 0.000000
f 1//1 2//1 3//1
f 1//2 4//2 2//2
f 1//3 3//3 5//3
f 6//4 1//4 5//4
f 2//5 7//5 8//5
f 2//6 9//6 7//6
f 2//7 10//7 9//7
f 4//8 11//8 2//8
f 2//9 11//9 10//9
f 4//10 12//10 11//10
f 4//11 13//11 12//11
f 4//12 14//12 13//12
f 4//13 15//13 14//13
f 1//14 6//14 4//14
f 4//15 6//15 15//15
f 6//16 16//16 15//16
f 6//17 17//17 16//17
f 6//18 18//18 17//18
f 19//19 20//19 18//19
f 17//20 21//20 22//20
f 18//21 21//21 17//21
f 20//22 23//22 18//22
f 18//23 23//23 21//23
f 23//24 24//24 21//24
f 5//25 3//25 2//25
f 5//26 2//26 8//26
f 25//27 5//27 8//27
f 26//28 5//28 25//28
f 27//29 5//29 26//29
f 28//30 29//30 27//30
f 30//31 26//31 31//31
f 30//32 27//32 26//32
f 32//33 28//33 27//33
f 32//34 27//34 30//34
f 33//35 32//35 30//35
f 18//36 6//36 27//36
f 27//37 6//37 5//37
f 10//38 11//38 34//38
f 34//39 12//39 35//39
f 11//40 12//40 34//40
f 36//41 37//41 38//41
f 35//42 13//42 39//42
f 40//43 37//43 36//43
f 12//44 13//44 35//44
f 38//45 41//45 42//45
f 39//46 14//46 43//46
f 37//47 41//47 38//47
f 13//48 14//48 39//48
f 43//49 15//49 44//49
f 42//50 45//50 46//50
f 14//51 15//51 43//51
f 41//52 45//52 42//52
f 44//53 47//53 48//53
f 45//54 26//54 46//54
f 15//55 47//55 44//55
f 46//56 26//56 49//56
f 48//57 50//57 51//57
f 47//58 50//58 48//58
f 26//59 52//59 49//59
f 49//60 52//60 53//60
f 51//61 54//61 55//61
f 50//62 54//62 51//62
f 52//63 56//63 53//63
f 53//64 56//64 57//64
f 55//65 58//65 59//65
f 54//66 58//66 55//66
f 58//67 60//67 59//67
f 56//68 61//68 57//68
f 59//69 60//69 62//69
f 57//70 61//70 63//70
f 60//71 64//71 62//71
f 62//72 64//72 65//72
f 61//73 66//73 63//73
f 63//74 66//74 67//74
f 66//75 68//75 67//75
f 64//76 69//76 65//76
f 67//77 68//77 70//77
f 65//78 69//78 71//78
f 69//79 72//79 71//79
f 68//80 73//80 70//80
f 71//81 72//81 74//81
f 70//82 73//82 75//82
f 72//83 76//83 74//83
f 74//84 76//84 77//84
f 73//85 78//85 75//85
f 75//86 78//86 79//86
f 76//87 80//87 77//87
f 77//88 80//88 81//88
f 78//89 82//89 79//89
f 79//90 82//90 83//90
f 80//91 84//91 81//91
f 81//92 84//92 85//92
f 82//93 86//93 83//93
f 83//94 86//94 87//94
f 84//95 88//95 85//95
f 85//96 88//96 89//96
f 86//97 90//97 87//97
f 88//98 17//98 89//98
f 87//99 90//99 91//99
f 89//100 17//100 92//100
f 90//101 93//101 91//101
f 17//102 94//102 92//102
f 91//103 93//103 95//103
f 92//104 94//104 96//104
f 94//105 97//105 96//105
f 93//106 98//106 95//106
f 96//107 97//107 99//107
f 95//108 98//108 100//108
f 97//109 101//109 99//109
f 98//110 8//110 100//110
f 99//111 101//111 36//111
f 100//112 8//112 102//112
f 101//113 40//113 36//113
f 8//114 7//114 102//114
f 102//115 7//115 103//115
f 7//116 9//116 103//116
f 103//117 9//117 104//117
f 104//118 10//118 34//118
f 9//119 10//119 104//119
f 15//120 16//120 47//120
f 47//121 16//121 50//121
f 50//122 16//122 54//122
f 16//123 58//123 54//123
f 16//124 60//124 58//124
f 16//125 64//125 60//125
f 16//126 69//126 64//126
f 16//127 72//127 69//127
f 16//128 76//128 72//128
f 16//129 80//129 76//129
f 16//130 84//130 80//130
f 17//131 88//131 16//131
f 16//132 88//132 84//132
f 45//133 31//133 26//133
f 41//134 31//134 45//134
f 37//135 31//135 41//135
f 40//136 22//136 31//136
f 40//137 31//137 37//137
f 101//138 22//138 40//138
f 97//139 22//139 101//139
f 94//140 22//140 97//140
f 17//141 22//141 94//141
f 31//142 21//142 30//142
f 22//143 21//143 31//143
f 21//144 24//144 33//144
f 21//145 33//145 30//145
f 105//146 106//146 33//146
f 33//147 24//147 105//147
f 24//148 107//148 105//148
f 108//149 32//149 109//149
f 106//150 32//150 33//150
f 109//151 32//151 106//151
f 110//152 111//152 106//152
f 106//153 111//153 109//153
f 112//154 23//154 108//154
f 108//155 23//155 32//155
f 24//156 23//156 107//156
f 107//157 23//157 110//157
f 110//158 23//158 111//158
f 111//159 23//159 112//159
f 113//160 114//160 28//160
f 20//161 28//161 114//161
f 115//162 20//162 114//162
f 32//163 116//163 117//163
f 32//164 113//164 28//164
f 32//165 117//165 113//165
f 118//166 119//166 113//166
f 118//167 113//167 117//167
f 23//168 120//168 116//168
f 23//169 116//169 32//169
f 23//170 20//170 115//170
f 23//171 115//171 119//171
f 23//172 119//172 118//172
f 23//173 118//173 120//173
f 20//174 19//174 28//174
f 28//175 19//175 29//175
f 29//176 19//176 27//176
f 19//177 18//177 27//177
f 66//178 25//178 68//178
f 68//179 25//179 73//179
f 73//180 25//180 78//180
f 78//181 25//181 82//181
f 82//182 25//182 86//182
f 86//183 25//183 90//183
f 90//184 25//184 93//184
f 93//185 25//185 98//185
f 98//186 25//186 8//186
f 66//187 61//187 25//187
f 61//188 56//188 25//188
f 56//189 52//189 25//189
f 52//190 26//190 25//190
f 92//191 36//191 46//191
f 102//192 95//192 100//192
f 92//193 96//193 99//193
f 92//194 99//194 36//194
f 81//195 74//195 77//195
f 81//196 63//196 44//196
f 81//197 55//197 74//197
f 81//198 46//198 63//198
f 81//199 44//199 55//199
f 89//200 92//200 46//200
f 89//201 46//201 81//201
f 85//202 89//202 81//202
f 104//203 102//203 103//203
f 79//204 83//204 87//204
f 75//205 79//205 87//205
f 39//206 104//206 34//206
f 39//207 34//207 35//207
f 63//208 67//208 70//208
f 63//209 70//209 75//209
f 63//210 87//210 91//210
f 63//211 91//211 95//211
f 63//212 95//212 102//212
f 63//213 75//213 87//213
f 63//214 102//214 104//214
f 63//215 104//215 39//215
f 44//216 39//216 43//216
f 44//217 63//217 39//217
f 49//218 53//218 57//218
f 49//219 57//219 63//219
f 51//220 44//220 48//220
f 46//221 49//221 63//221
f 55//222 44//222 51//222
f 62//223 55//223 59//223
f 38//224 42//224 46//224
f 65//225 55//225 62//225
f 36//226 38//226 46//226
f 74//227 55//227 65//227
f 74//228 65//228 71//228
f 106//229 121//229 122//229
f 106//230 105//230 121//230
f 110//231 122//231 123//231
f 110//232 106//232 122//232
f 107//233 123//233 124//233
f 107//234 110//234 123//234
f 105//235 124//235 121//235
f 105//236 107//236 124//236
f 108//237 125//237 126//237
f 108//238 109//238 125//238
f 112//239 126//239 127//239
f 112//240 108//240 126//240
f 111//241 127//241 128//241
f 111//242 112//242 127//242
f 109//243 128//243 125//243
f 109//244 111//244 128//244
f 114//245 129//245 130//245
f 114//246 113//246 129//246
f 113//247 131//247 129//247
f 113//248 119//248 131//248
f 119//249 132//249 131//249
f 119//250 115//250 132//250
f 115//251 130//251 132//251
f 115//252 114//252 130//252
f 117//253 133//253 134//253
f 117//254 116//254 133//254
f 116//255 135//255 133//255
f 116//256 120//256 135//256
f 120//257 136//257 135//257
f 120//258 118//258 136//258
f 118//259 134//259 136//259
f 118//260 117//260 134//260
f 121//261 123//261 122//261
f 121//262 124//262 123//262
f 125//263 127//263 126//263
f 125//264 128//264 127//264
f 129//265 132//265 130//265
f 129//266 131//266 132//266
f 133//267 136//267 134//267
f 133//268 135//268 136//268
