# Created by FreeCAD <http://www.freecadweb.org>
v 9.000000 0.000000 24.000000
v 8.827067 1.755813 0.000000
v 8.827067 1.755813 24.000000
v 9.000000 0.000000 0.000000
v 8.314916 3.444151 0.000000
v 8.314916 3.444151 24.000000
v 7.483226 5.000132 0.000000
v 7.483226 5.000132 24.000000
v 6.363961 6.363961 24.000000
v 6.363961 6.363961 0.000000
v 5.000132 7.483226 0.000000
v 5.000132 7.483226 24.000000
v 3.444151 8.314916 24.000000
v 3.444151 8.314916 0.000000
v 1.755813 8.827067 24.000000
v 1.755813 8.827067 0.000000
v 0.000000 9.000000 24.000000
v 0.000000 9.000000 0.000000
v 3.444151 -8.314916 0.000000
v 6.363961 -6.363961 0.000000
v 5.000132 -7.483226 0.000000
v 0.000000 -9.000000 0.000000
v 8.827067 -1.755813 0.000000
v 1.755813 -8.827067 0.000000
v 7.483226 -5.000132 0.000000
v 8.314916 -3.444151 0.000000
v -9.000000 9.000000 24.000000
v -9.000000 9.000000 0.000000
v 6.363961 -6.363961 24.000000
v 3.444151 -8.314916 24.000000
v 5.000132 -7.483226 24.000000
v 8.827067 -1.755813 24.000000
v 0.000000 -9.000000 24.000000
v 1.755813 -8.827067 24.000000
v 7.483226 -5.000132 24.000000
v 8.314916 -3.444151 24.000000
v -8.314916 -3.444151 0.000000
v -8.827067 -1.755813 0.000000
v -7.483226 -5.000132 0.000000
v -5.000132 -7.483226 0.000000
v -1.755813 -8.827067 0.000000
v -3.444151 -8.314916 0.000000
v -6.363961 -6.363961 0.000000
v -9.000000 -0.000000 -0.000000
v -8.827067 1.755813 0.000000
v -7.483226 5.000132 0.000000
v -6.363961 6.363961 0.000000
v -8.314916 3.444151 0.000000
v -3.444151 8.314916 0.000000
v -1.755813 8.827067 0.000000
v -5.000132 7.483226 0.000000
v -9.000000 23.000000 24.000000
v -9.000000 23.000000 0.000000
v -8.950697 0.940756 24.000000
v -24.000000 -9.000000 24.000000
v -8.950697 -0.940756 24.000000
v -8.559508 -2.781153 24.000000
v -7.794229 -4.500000 24.000000
v -6.688303 -6.022175 24.000000
v -5.290067 -7.281153 24.000000
v -3.660630 -8.221910 24.000000
v -1.871205 -8.803329 24.000000
v -3.660630 8.221910 24.000000
v -5.290067 7.281153 24.000000
v -6.688303 6.022175 24.000000
v -7.794229 4.500000 24.000000
v -8.559508 2.781153 24.000000
v -22.500000 13.000000 24.000000
v -10.500000 13.000000 24.000000
v -10.500000 19.000000 24.000000
v -24.000000 23.000000 24.000000
v -22.500000 19.000000 24.000000
v -1.871205 8.803329 24.000000
v -9.000000 -9.000000 0.000000
v -22.500000 19.000000 30.000000
v -10.500000 19.000000 30.000000
v -10.500000 13.000000 30.000000
v -22.500000 13.000000 30.000000
vn 0.995185 0.098017 0.000000
vn 0.995185 0.098017 -0.000000
vn 0.956940 0.290285 0.000000
vn 0.956940 0.290285 -0.000000
vn 0.881921 0.471397 0.000000
vn 0.773011 0.634393 0.000000
vn 0.881921 0.471397 -0.000000
vn 0.773011 0.634393 0.000000
vn 0.634393 0.773011 0.000000
vn 0.471397 0.881921 0.000000
vn 0.634393 0.773011 -0.000000
vn 0.290285 0.956940 0.000000
vn 0.471397 0.881921 0.000000
vn 0.098017 0.995185 0.000000
vn 0.290285 0.956940 0.000000
vn 0.098017 0.995185 0.000000
vn 0.000000 0.000000 -1.000000
vn 0.000000 0.000000 -1.000000
vn 0.000000 0.000000 -1.000000
vn 0.000000 0.000000 -1.000000
vn 0.000000 0.000000 -1.000000
vn 0.000000 0.000000 -1.000000
vn 0.000000 0.000000 -1.000000
vn 0.000000 0.000000 -1.000000
vn -0.000000 -0.000000 -1.000000
vn 0.000000 0.000000 -1.000000
vn 0.000000 0.000000 -1.000000
vn 0.000000 0.000000 -1.000000
vn -0.000000 -0.000000 -1.000000
vn 0.000000 0.000000 -1.000000
vn 0.000000 0.000000 -1.000000
vn -0.000000 1.000000 0.000000
vn 0.000000 1.000000 0.000000
vn 0.000000 0.000000 1.000000
vn 0.000000 0.000000 1.000000
vn 0.000000 0.000000 1.000000
vn 0.000000 0.000000 1.000000
vn 0.000000 0.000000 1.000000
vn 0.000000 0.000000 1.000000
vn 0.000000 0.000000 1.000000
vn 0.000000 0.000000 1.000000
vn 0.000000 0.000000 1.000000
vn 0.000000 0.000000 1.000000
vn 0.000000 0.000000 1.000000
vn 0.000000 0.000000 1.000000
vn 0.000000 0.000000 1.000000
vn 0.000000 0.000000 1.000000
vn 0.000000 0.000000 1.000000
vn 0.098017 -0.995185 0.000000
vn 0.098017 -0.995185 0.000000
vn 0.290285 -0.956940 0.000000
vn 0.290285 -0.956940 0.000000
vn 0.471397 -0.881921 0.000000
vn 0.471397 -0.881921 0.000000
vn 0.634393 -0.773011 0.000000
vn 0.634393 -0.773011 0.000000
vn 0.773011 -0.634393 0.000000
vn 0.773011 -0.634393 0.000000
vn 0.881921 -0.471397 0.000000
vn 0.881921 -0.471397 0.000000
vn 0.956940 -0.290285 0.000000
vn 0.995185 -0.098017 0.000000
vn 0.956940 -0.290285 0.000000
vn 0.995185 -0.098017 0.000000
vn 0.000000 0.000000 -1.000000
vn 0.000000 0.000000 -1.000000
vn 0.000000 0.000000 -1.000000
vn 0.000000 0.000000 -1.000000
vn 0.000000 0.000000 -1.000000
vn 0.000000 -0.000000 -1.000000
vn 0.000000 -0.000000 -1.000000
vn 0.000000 0.000000 -1.000000
vn 0.000000 0.000000 -1.000000
vn 0.000000 0.000000 -1.000000
vn 0.000000 -0.000000 -1.000000
vn 0.000000 -0.000000 -1.000000
vn 0.000000 0.000000 -1.000000
vn 0.000000 0.000000 -1.000000
vn 0.000000 -0.000000 -1.000000
vn 1.000000 0.000000 0.000000
vn 1.000000 0.000000 0.000000
vn 0.000000 0.000000 1.000000
vn 0.000000 0.000000 1.000000
vn 0.000000 0.000000 1.000000
vn 0.000000 0.000000 1.000000
vn 0.000000 0.000000 1.000000
vn 0.000000 0.000000 1.000000
vn 0.000000 0.000000 1.000000
vn 0.000000 0.000000 1.000000
vn 0.000000 0.000000 1.000000
vn 0.000000 0.000000 1.000000
vn 0.000000 0.000000 1.000000
vn 0.000000 0.000000 1.000000
vn 0.000000 0.000000 1.000000
vn 0.000000 0.000000 1.000000
vn 0.000000 0.000000 1.000000
vn 0.000000 0.000000 1.000000
vn 0.000000 0.000000 1.000000
vn 0.000000 0.000000 1.000000
vn 0.000000 0.000000 1.000000
vn 0.000000 0.000000 1.000000
vn 0.000000 0.000000 1.000000
vn 0.000000 -0.000000 1.000000
vn 0.000000 0.000000 1.000000
vn 0.000000 0.000000 1.000000
vn 0.000000 0.000000 -1.000000
vn 0.000000 0.000000 -1.000000
vn 0.000000 0.000000 -1.000000
vn 0.000000 0.000000 -1.000000
vn 0.000000 0.000000 -1.000000
vn 0.000000 0.000000 -1.000000
vn 0.000000 0.000000 -1.000000
vn 0.000000 0.000000 -1.000000
vn 0.000000 0.000000 1.000000
vn 0.000000 0.000000 1.000000
vn 0.000000 0.000000 1.000000
vn 0.000000 0.000000 1.000000
vn 0.000000 0.000000 1.000000
vn 0.000000 0.000000 1.000000
vn 0.000000 0.000000 1.000000
vn 0.000000 0.000000 1.000000
vn 0.000000 0.000000 1.000000
vn 0.000000 0.000000 1.000000
vn 0.000000 0.000000 1.000000
vn 0.000000 0.000000 1.000000
vn 0.000000 0.000000 1.000000
vn 0.000000 0.000000 1.000000
vn 0.000000 -1.000000 0.000000
vn -0.000000 -1.000000 0.000000
vn 0.000000 0.000000 -1.000000
vn 0.000000 0.000000 -1.000000
vn 0.000000 0.000000 -1.000000
vn 0.000000 -0.000000 -1.000000
vn 0.000000 -0.000000 -1.000000
vn 0.000000 -0.000000 -1.000000
vn 0.000000 -0.000000 -1.000000
vn 0.000000 0.000000 -1.000000
vn -0.000000 1.000000 0.000000
vn -0.847998 0.000000 -0.529999
vn -0.847998 0.000000 -0.529999
vn -0.847998 0.000000 -0.529999
vn -0.847998 -0.000000 -0.529999
vn 0.000000 1.000000 0.000000
vn 0.000000 1.000000 -0.000000
vn 1.000000 0.000000 0.000000
vn 1.000000 0.000000 0.000000
vn 0.000000 -1.000000 0.000000
vn 0.000000 -1.000000 0.000000
vn -1.000000 0.000000 0.000000
vn -1.000000 0.000000 0.000000
vn 0.000000 0.000000 1.000000
vn 0.000000 0.000000 1.000000
f 1//1 2//1 3//1
f 4//2 2//2 1//2
f 3//3 5//3 6//3
f 2//4 5//4 3//4
f 6//5 7//5 8//5
f 8//6 7//6 9//6
f 5//7 7//7 6//7
f 7//8 10//8 9//8
f 9//9 11//9 12//9
f 12//10 11//10 13//10
f 10//11 11//11 9//11
f 13//12 14//12 15//12
f 11//13 14//13 13//13
f 15//14 16//14 17//14
f 14//15 16//15 15//15
f 16//16 18//16 17//16
f 19//17 20//17 21//17
f 22//18 23//18 24//18
f 24//19 23//19 19//19
f 20//20 23//20 25//20
f 25//21 23//21 26//21
f 19//22 23//22 20//22
f 23//23 5//23 4//23
f 4//24 5//24 2//24
f 16//25 14//25 18//25
f 18//26 7//26 22//26
f 22//27 7//27 23//27
f 23//28 7//28 5//28
f 14//29 11//29 18//29
f 18//30 11//30 7//30
f 11//31 10//31 7//31
f 27//32 17//32 28//32
f 28//33 17//33 18//33
f 29//34 30//34 31//34
f 32//35 33//35 34//35
f 32//36 34//36 30//36
f 32//37 29//37 35//37
f 32//38 35//38 36//38
f 32//39 30//39 29//39
f 6//40 32//40 1//40
f 6//41 1//41 3//41
f 13//42 15//42 17//42
f 8//43 17//43 33//43
f 8//44 33//44 32//44
f 8//45 32//45 6//45
f 12//46 13//46 17//46
f 12//47 17//47 8//47
f 9//48 12//48 8//48
f 33//49 24//49 34//49
f 22//50 24//50 33//50
f 34//51 19//51 30//51
f 24//52 19//52 34//52
f 30//53 21//53 31//53
f 19//54 21//54 30//54
f 31//55 20//55 29//55
f 21//56 20//56 31//56
f 29//57 25//57 35//57
f 20//58 25//58 29//58
f 35//59 26//59 36//59
f 25//60 26//60 35//60
f 36//61 23//61 32//61
f 32//62 23//62 1//62
f 26//63 23//63 36//63
f 23//64 4//64 1//64
f 37//65 38//65 39//65
f 40//66 41//66 42//66
f 43//67 22//67 40//67
f 40//68 22//68 41//68
f 44//69 45//69 38//69
f 46//70 47//70 48//70
f 48//71 47//71 45//71
f 39//72 47//72 43//72
f 38//73 47//73 39//73
f 45//74 47//74 38//74
f 49//75 50//75 51//75
f 51//76 50//76 47//76
f 47//77 50//77 43//77
f 43//78 18//78 22//78
f 50//79 18//79 43//79
f 52//80 27//80 53//80
f 53//81 27//81 28//81
f 54//82 55//82 56//82
f 56//83 55//83 57//83
f 57//84 55//84 58//84
f 58//85 55//85 59//85
f 59//86 55//86 60//86
f 60//87 55//87 61//87
f 61//88 55//88 62//88
f 62//89 55//89 33//89
f 63//90 27//90 64//90
f 64//91 27//91 65//91
f 65//92 27//92 66//92
f 66//93 27//93 67//93
f 67//94 68//94 54//94
f 54//95 68//95 55//95
f 27//96 68//96 67//96
f 69//97 68//97 27//97
f 70//98 71//98 72//98
f 72//99 71//99 68//99
f 52//100 71//100 70//100
f 17//101 27//101 73//101
f 73//102 27//102 63//102
f 27//103 52//103 69//103
f 69//104 52//104 70//104
f 71//105 55//105 68//105
f 28//106 49//106 51//106
f 28//107 51//107 47//107
f 28//108 47//108 46//108
f 28//109 46//109 48//109
f 28//110 48//110 45//110
f 44//111 28//111 45//111
f 28//112 18//112 50//112
f 28//113 50//113 49//113
f 61//114 58//114 59//114
f 61//115 59//115 60//115
f 33//116 61//116 62//116
f 33//117 58//117 61//117
f 54//118 56//118 57//118
f 66//119 67//119 54//119
f 64//120 65//120 66//120
f 17//121 73//121 63//121
f 17//122 63//122 64//122
f 17//123 57//123 58//123
f 17//124 54//124 57//124
f 17//125 58//125 33//125
f 17//126 64//126 66//126
f 17//127 66//127 54//127
f 22//128 33//128 74//128
f 33//129 55//129 74//129
f 74//130 43//130 40//130
f 74//131 40//131 42//131
f 74//132 42//132 41//132
f 39//133 43//133 74//133
f 37//134 39//134 74//134
f 38//135 37//135 74//135
f 74//136 44//136 38//136
f 22//137 74//137 41//137
f 71//138 52//138 53//138
f 28//139 71//139 53//139
f 28//140 55//140 71//140
f 44//141 55//141 28//141
f 74//142 55//142 44//142
f 70//143 72//143 75//143
f 70//144 75//144 76//144
f 69//145 70//145 76//145
f 69//146 76//146 77//146
f 68//147 69//147 77//147
f 68//148 77//148 78//148
f 72//149 68//149 78//149
f 72//150 78//150 75//150
f 76//151 75//151 77//151
f 77//152 75//152 78//152
